<?xml version="1.0" encoding="utf-8"?><svg version="1.1" id="Layer_1" xmlns="http://www.w3.org/2000/svg" xmlns:xlink="http://www.w3.org/1999/xlink" x="0px" y="0px" viewBox="0 0 122.88 94.64" style="enable-background:new 0 0 122.88 94.64" xml:space="preserve"><style type="text/css">.st0{fill-rule:evenodd;clip-rule:evenodd;}</style><g><path class="st0" d="M0,29.94L28.91,9.43l29.06,20.51H0L0,29.94z M25.7,76.13l18.46-4.73l-3.47,5.79 c6.37,5.86,13.11,7.64,20.79,4.72c-7.57,10.93-18.63,11.76-27.71,6.83l-3.54,5.9L25.7,76.13L25.7,76.13L25.7,76.13L25.7,76.13z M64.9,47.08l28.91-20.51l29.06,20.51H64.9L64.9,47.08z M66.66,80.61v-6.72h1.99l1.9-1.49V54.53h-3.88v-4.28h54.29v4.28h-3.87V72.4 l1.9,1.49h2.03v6.72H66.66L66.66,80.61z M79.59,73.88h2.19l1.9-1.49V54.53h-5.98V72.4L79.59,73.88L79.59,73.88L79.59,73.88z M92.72,73.88h2.19l1.9-1.49V54.53h-5.98V72.4L92.72,73.88L92.72,73.88L92.72,73.88z M105.85,73.88h2.19l1.9-1.49V54.53h-5.98V72.4 L105.85,73.88L105.85,73.88L105.85,73.88z M85.98,18.71L67.3,22.53l3.75-5.61c-6.08-6.17-12.72-8.28-20.53-5.74 c8.1-10.54,19.19-10.83,28.01-5.45L82.35,0L85.98,18.71L85.98,18.71L85.98,18.71L85.98,18.71z M1.76,63.47v-6.72h1.99l1.9-1.49 V37.39H1.77v-4.28h54.29v4.28h-3.87v17.86l1.9,1.49h2.03v6.72H1.76L1.76,63.47z M14.69,56.74h2.19l1.9-1.49V37.39h-5.98v17.86 L14.69,56.74L14.69,56.74L14.69,56.74z M27.82,56.74h2.19l1.9-1.49V37.39h-5.98v17.86L27.82,56.74L27.82,56.74L27.82,56.74z M40.95,56.74h2.19l1.9-1.49V37.39h-5.98v17.86L40.95,56.74L40.95,56.74L40.95,56.74z"/></g></svg>