<?xml version="1.0" encoding="utf-8"?>
<!-- Generator: Adobe Illustrator 19.0.0, SVG Export Plug-In . SVG Version: 6.00 Build 0)  -->
<svg version="1.1" id="layer" xmlns="http://www.w3.org/2000/svg" xmlns:xlink="http://www.w3.org/1999/xlink" x="0px" y="0px"
	 viewBox="-153 -46 652 652" style="enable-background:new -153 -46 652 652;" xml:space="preserve">
<style type="text/css">
	.st0{fill:#204866;}
	.st1{fill:#27BCED;}
</style>
<g>
	<path class="st0" d="M281,243.3c-23.1-0.2-33.9,13.1-33.9,13.1c-7,7.5-2.5,17.5,4.4,18.3c9.9,1.1,9.8-7.2,25-10.9
		c13.3-3.2,13.9,9.1,13.9,9.1c-56.8-1.4-54.1,46.3-34.8,56.4c18.5,9.7,35.9-2.5,35.9-2.5s0.6,6.6,9.8,6.6
		c10.5,0,10.5-10.5,10.5-10.5l0-46.4C311,242.5,281,243.3,281,243.3 M276.5,310.5c0,0-14.9,3-14.7-7.6c0.1-10.6,27.1-10,29.8-9.1
		C291.6,293.7,292.5,305.8,276.5,310.5"/>
	<path class="st0" d="M464.5,314.6l-23.2-34.9l17-16.1c0,0,7.9-7.3,1.4-14.5c-7.1-8-15.7-0.1-15.7-0.1l-21.4,19.9V229
		c0-5.7-4.6-10.4-10.4-10.4c-5.7,0-10.4,4.6-10.4,10.4v93.9c0,5.7,4.6,10.4,10.4,10.4c5.7,0,10.4-4.6,10.4-10.4v-25l3.9-3.9l21,32.9
		c0,0,6.8,11.4,16.9,4.1C472,325.5,464.5,314.6,464.5,314.6"/>
</g>
<g>
	<path class="st0" d="M390.6,276.4c0-33.9-28.3-38.7-47.5-27.9c0,0,0,0.1,0,0.1c-1.4-4.1-5.3-7.1-9.9-7.1c-5.8,0-10.6,4.7-10.6,10.6
		v70.7c0,5.8,4.7,10.6,10.6,10.6c5.8,0,10.6-4.7,10.6-10.6l-0.1-47.7c0,0,2.6-3,6.7-6c9.9-7,19.3-4.6,19.3,7.4l0.3,46.5
		c0,5.8,4.7,10.4,10.4,10.4c5.7,0,10.4-4.7,10.4-10.4L390.6,276.4z"/>
	<path class="st1" d="M86.3,334.7c2.4-4,2.8-6.9,2.8-6.9l-23.9-62.5c0,0-4.3-12.1,5.2-15.7c10.1-3.8,13.8,5.9,14.5,7.9
		c0.8,2,15.1,40.2,15.1,40.2l13.8-40.1c0,0,4-12.5,15-8c9.1,3.7,4.4,15.9,4.4,15.9s-14.1,41.8-26,72.1c-7.1,18.1-13.1,19.9-20,21.6
		c-9.2,2.3-26.7,1.1-26.7-10.3c0-9.1,9.3-9.6,13.5-9.5C74.4,339.4,83,340.2,86.3,334.7"/>
</g>
<g>
	<path class="st1" d="M30.8,229.7L9,290L-14.8,230c0,0-3.5-11.3-13.5-11.3c-11.5,0-11.1,9.1-11.4,11.3c-0.3,2.2,0,93.7,0,93.7
		s-0.1,9.6,10.4,9.6c10.8,0,10.3-9.7,10.4-9.7c0.1,0,0-48.3,0-48.3l17.5,48.3c0,0,2.6,9.5,10.7,9.3c8.1-0.2,10.4-9.3,10.4-9.3
		l14.7-48.2v48.2c0,0,0,9.7,10.6,9.7c10.3,0,10.3-9.7,10.3-9.7l0-93.5c0,0,0-11.4-11.2-11.4C34.9,218.8,31.4,227.7,30.8,229.7
		c-0.1,0.2-0.1,0.4-0.1,0.4"/>
	<path class="st1" d="M467.9,370.2H283.5l-135.4,0l0.1,0.1c-26.8,31.3-66.5,51.3-111,51.3c-80.6,0-145.9-65.3-145.9-145.9
		c0-80.6,65.3-145.9,145.9-145.9c44.6,0,84.6,20.1,111.3,51.6h29.3c-30.4-45.3-82-75.1-140.6-75.1c-93.6,0-169.4,75.9-169.4,169.4
		s75.8,169.4,169.4,169.4c49.1,0,93.2-21,124.1-54.3l292.6-0.3L467.9,370.2z"/>
</g>
<g>
	<path class="st0" d="M222.6,271.9c0.6-0.8,7.6-6.5,7-21.7c-1.1-30.7-27.8-30.4-33.7-30.5c-9.5-0.3-15.2-0.2-32.7,0
		c-14.8,0.1-14.6,13.5-14.6,13.5v100.1h49.7c26.6,0,36.5-14.6,36.5-35.1C234.8,277.6,222.6,271.9,222.6,271.9 M170,240.9h27.5
		c5.5,0.1,11.3,3.1,11.3,11.3c0,8.6-5,11.3-11.3,11.3H170V240.9z M199.4,312.9H170v-28.1h29.4c7.1,0.4,14,4,14,14
		C213.4,309.1,207.1,312.9,199.4,312.9"/>
</g>
</svg>
